<svg xmlns="http://www.w3.org/2000/svg" viewBox="0 0 24 24" fill="currentColor"><path d="M12 2C6.48 2 2 6.48 2 12c0 4.42 2.87 8.17 6.84 9.5.5.09.68-.22.68-.49v-1.74c-2.73.59-3.3-1.32-3.3-1.32-.44-1.12-1.08-1.41-1.08-1.41-.89-.61.07-.6.07-.6 1.04.07 1.58 1.06 1.58 1.06.92 1.58 2.41 1.12 3.01.85.09-.67.36-1.12.66-1.37-2.33-.26-4.79-1.16-4.79-5.15 0-1.14.4-2.08 1.05-2.82-.1-.26-.46-1.31.1-2.72 0 0 .88-.28 2.88 1.08.84-.23 1.76-.35 2.66-.35s1.82.12 2.66.35c2-1.36 2.88-1.08 2.88-1.08.56 1.41.2 2.46.1 2.72.65.74 1.05 1.68 1.05 2.82 0 3.99-2.47 4.89-4.8 5.14.37.32.7.95.7 1.91v2.83c0 .28.18.59.69.49C21.13 20.17 24 16.42 24 12c0-5.52-4.48-10-10-10z"/></svg>
