<svg width="24" height="24" viewBox="0 0 24 24" fill="none" xmlns="http://www.w3.org/2000/svg">
  <path d="M22.225 0H1.775C0.794 0 0 0.794 0 1.775V22.225C0 23.206 0.794 24 1.775 24H22.225C23.206 24 24 23.206 24 22.225V1.775C24 0.794 23.206 0 22.225 0ZM7.074 20.452H3.454V9.295H7.074V20.452ZM5.265 7.603C4.078 7.603 3.1 6.626 3.1 5.405C3.1 4.184 4.078 3.207 5.265 3.207C6.452 3.207 7.429 4.184 7.429 5.405C7.429 6.626 6.452 7.603 5.265 7.603ZM20.452 20.452H16.832V14.282C16.832 12.837 16.822 11.093 15.244 11.093C13.622 11.093 13.235 12.497 13.235 13.472V20.452H9.613V9.295H13.049V10.686H13.092C13.435 9.904 14.246 8.773 16.184 8.773C19.248 8.773 20.452 10.872 20.452 14.659V20.452Z" fill="#0A66C2"/>
</svg>