<svg xmlns="http://www.w3.org/2000/svg" version="1.1" xmlns:xlink="http://www.w3.org/1999/xlink" xmlns:svgjs="http://svgjs.dev/svgjs" width="2000" height="1500" viewBox="0 0 2000 1500"><rect width="2000" height="1500" fill="#282634"></rect><g transform="matrix(0.44603033006244425,0,0,0.44603033006244425,552.580232658313,250)"><svg viewBox="0 0 321 360" data-background-color="#282634" preserveAspectRatio="xMidYMid meet" height="2242" width="2000" xmlns="http://www.w3.org/2000/svg" xmlns:xlink="http://www.w3.org/1999/xlink"><g id="tight-bounds" transform="matrix(1,0,0,1,0.5000234999999975,0)"><svg viewBox="0 0 320 360" height="360" width="320"><g><svg></svg></g><g><svg viewBox="0 0 320 360" height="360" width="320"><g><path transform="translate(-74.99272,-51.79039) scale(4.65793,4.65793)" d="M20.6 59.9l0.8 1-0.4-1.3c-0.1-0.6-0.8 0.1-0.4 0.3M21.5 59.3c0.3 0.5 0.6 1 0.6 1.5 0 0.7 0.6 1 1.1 1.2-0.7-0.8-1.1-3-1.7-2.7M59.9 16.9c1.7 0 3.3-0.2 5.1 0.2 4.4 1.1 8.1 3.3 10.6 6.4l7 11.2c0.3 2.8 0.9 5.9 0.8 9.3 0.7 0 0.6-1 1.4-1.2-0.8 2-1.2 4.5-1.4 7.4-0.5-1.6 0-4 0.1-5.3-0.7 1.1-1.1 0.3-1.1-0.2 0.1-0.8-0.3-0.7-0.6-1-1.1-1-1.8-2.1-2.6-3.8 0.5-1.3 0.6-3.2-1-4.2-0.5-0.3-1.1-0.8-1.4-1.6-0.4-1.1-1.1-2.4-0.9-4.1 0.1-0.5-1.5 1.1-2.4 0.4-3.9-2.7-7.8-5.8-12.5-8.4-2.5 0-4.3-0.9-5.2-2-0.8-1-0.2-2.3 1-2.4 0.7 0 1.5-0.2 2.1 0.2 0.1-0.4 0.5-0.9 1-0.9M50 14.6l0.2 0.1c1 0.2 1.5 1.6 2.6 1.1 0 0.7 0.1 1.4-0.1 1.9-0.3 0.8-1.2 0.8-1.9 0.8-6.7-0.4-10.6 2.4-14.7 4.8-1.1 0.7-2.3 1.2-3.2 2.1-4.3 4-9 7.7-10.1 15.1l-0.9 8.2c-0.1 0.9-1.1 1.8-0.9 2.9l0.7 4.9c-0.7-0.7-1.1 0.2-0.9 0.6 0.1 0.3 0.5 1.3 1.1 0.4 0.8 1.5 1.6 4.4 2.7 5.7 3.4 4 7.8 7.6 11.4 11.2 0.9-0.2 1.6-0.2 1.8-0.8 0.3 0.6-0.3 1.2-0.8 1.3 1.6 1 3.4 1.9 5.8 2.1 3.1 0.2 6 0.7 8.7 1.4 1.4-0.4 2.8-0.6 4.3-0.7 0.5 0 0.8-0.8 1.4-1l0.1-1c0.6 0.9 0.5-0.3 0.1-0.9 0.7 0.6 0.9 1.1 1.2 1.5 0-0.3 0.8-1.4 0.8-0.1l0.2-1.3c0.3-0.2 0.4 1.1 0.7 0.2 0.3-0.9 0.9-0.2 1.5-0.5-0.2 0.4-0.1 1.2 0.6 0.7l0.8-0.7c0.5 1.2 1.3 0.7 1.7 0.5 4.4-2.8 8.8-6.1 13-9.4l-0.1 1.3 0.5-1.6c0.5 0.5 0.9 0.1 1.1-0.2 0.6-1 1.4-2 2.7-2.9-1.6 4.3-3.5 7.7-5.9 10.5l-1 1.2c0 0.7-0.2 1.6-1 1.7-0.4 0.1-1.2-0.2-1.8 0.4-0.3 0.4 0.7 1.2-0.1 0.6-0.7-0.5-1.4 0-2.2 0.2-0.6 0.2 0.4 0.8 0.6 1.2 0.2 0.4 0.4 0.8 0.3 1.3l-1.1-1.2c-1.3 0.7-2.1 2-3.2 3-0.5 0.4-0.3 1.1-0.3 1.7-0.7 0-1.5-0.2-1.9 0.2-0.3 0.4-0.2 1-0.2 1.6-1-0.1-1.1-1.6-2-1.3-0.9 0.2-1.9 0.3-2.7 0.8 0.6 1.2-1 0.5-0.8 0.7-1.5-0.9-2.8-1.6-4.4-1-3.4-1.1-7.6-0.6-10.7-0.2 0-0.5 0.1-1-0.1-1.1-0.2 0.5-0.8 0.3-0.7 0.3-1.9-1.3-3.8-2.1-5.8-3.2-1.8 0.2-3.5-0.7-4-1.2-1.4-1.3-3-0.6-4.3-0.9-2.8-0.7-3.8-3.6-4.1-5.6-0.2-1-1-1.4-1.3-1.3-1.3-4.2-3.3-8-4.9-11.9-0.4-1-0.3-2-0.3-3.1 0.5 0.2 1 0.1 0.9-0.6-0.5-3.3-1.7-5.8-3-8.2 0.7-3.4 0.8-7.4 2.4-10.4 1.4-2.7 4-4.1 5.8-6.4 0.6-0.8 0.6-1.9 1.2-2.6 2-2 4-4.1 6.2-5.9 1-0.8 2.2 0 3.7-0.3 0.5-1.8 2.5-3.4 4.4-2.9 0.8 0.2 2.4-1.9 2.9-2.1 0.8-0.3 0.4 0.8 0.4 1.5 1.9-1.5 4.5-2.3 6.9-3.2" fill="#ff4057" fill-rule="nonzero" stroke="none" stroke-width="1" stroke-linecap="butt" stroke-linejoin="miter" stroke-miterlimit="10" stroke-dasharray="" stroke-dashoffset="0" font-family="none" font-weight="none" font-size="none" text-anchor="none" style="mix-blend-mode: normal" data-fill-palette-color="tertiary"></path></g><g transform="matrix(1,0,0,1,64,164.0312859275284)"><svg viewBox="0 0 192 31.937428144943212" height="31.937428144943212" width="192"><g><svg viewBox="0 0 192 31.937428144943212" height="31.937428144943212" width="192"><g><svg viewBox="0 0 192 31.937428144943212" height="31.937428144943212" width="192"><g transform="matrix(1,0,0,1,0,19.303572006489993)"><svg viewBox="0 0 192 12.633856138453217" height="12.633856138453217" width="192"><g id="textblocktransform"><svg viewBox="0 0 192 12.633856138453217" height="12.633856138453217" width="192" id="textblock"><g><svg viewBox="0 0 192 12.633856138453217" height="12.633856138453217" width="192"><g transform="matrix(1,0,0,1,0,0)"><svg width="192" viewBox="3.83 -35.3 541.65 35.64" height="12.633856138453217" data-palette-color="#ff4057"><path d="M9.66-1.45Q8.42-0.56 6.13-0.56 3.83-0.56 3.83-2.49L3.83-2.49Q3.83-2.91 4.17-3.94 4.52-4.98 4.8-6.21 5.08-7.45 5.08-16.75 5.08-26.05 4.83-27.65 4.59-29.25 4.25-30.35 3.91-31.45 3.91-32.1L3.91-32.1Q3.91-33.96 7.13-33.96L7.13-33.96Q8.67-33.96 9.88-33.23 11.08-32.5 11.08-31.18L11.08-31.18Q11.08-30.52 10.91-29.49L10.91-29.49 10.72-28.32Q10.64-27.51 10.64-24.67 10.64-21.83 10.96-21.12 11.28-20.41 12.13-20.41 12.99-20.41 17.85-26.27L17.85-26.27Q19.65-28.44 20.14-29.21 20.63-29.98 21.3-31.18 21.97-32.37 22.31-32.74L22.31-32.74Q23.34-33.86 25.66-33.86 27.98-33.86 27.98-32.47L27.98-32.47Q27.98-32.25 23.1-26.45 18.21-20.65 18.21-19.09L18.21-19.09Q18.21-18.26 22.31-12.3 26.42-6.35 28.2-4.04 29.98-1.73 29.98-1.27L29.98-1.27Q29.98-0.29 27.93-0.29L27.93-0.29 27.1-0.29Q24.93-0.29 23.51-1.73L23.51-1.73Q23.32-1.93 20.51-6.36 17.7-10.79 16.72-12.01L16.72-12.01Q14.65-14.62 13.16-14.62L13.16-14.62Q11.99-14.62 11.27-12.46 10.55-10.3 10.55-7.01L10.55-7.01 10.89-4.05Q10.89-2.34 9.66-1.45ZM46.04-14.38L46.04-14.38Q47.7-14.38 48.39-14.89 49.07-15.41 49.07-16.06L49.07-16.06 49.07-17.09Q49.07-18.85 47.78-20 46.48-21.14 44.94-21.14L44.94-21.14 44.31-21.14Q42.09-21.14 40.43-19.27 38.77-17.41 38.77-15.19L38.77-15.19 38.77-14.77Q38.77-13.92 40.33-13.92L40.33-13.92 40.89-13.92 41.04-13.94 42.87-14.06 44.09-14.16 44.92-14.26Q45.14-14.28 45.52-14.33 45.9-14.38 46.04-14.38ZM45.04 0.32L45.04 0.32 43.97 0.32Q39.08 0.32 36.13-2.98L36.13-2.98Q34.81-4.44 34.08-6.7 33.35-8.96 33.35-11.18L33.35-11.18 33.35-12.28Q33.35-14.5 34.27-16.94L34.27-16.94Q36.06-21.7 40.33-23.41L40.33-23.41Q42.53-24.32 44.99-24.32L44.99-24.32 45.53-24.32Q48.95-24.32 51.17-22.24L51.17-22.24Q52.44-21.04 53.09-19.37 53.73-17.7 53.73-16.36L53.73-16.36Q53.73-13.4 51.88-12.5L51.88-12.5Q50.61-11.89 46.08-11.35 41.55-10.82 41.11-10.69L41.11-10.69Q38.99-10.16 38.99-8.79L38.99-8.79Q38.99-6.42 41.16-4.83L41.16-4.83Q42.75-3.66 45.7-3.66L45.7-3.66Q46.82-3.66 49.34-4.37 51.85-5.08 52.1-5.08L52.1-5.08Q53.37-5.08 53.37-3.93L53.37-3.93Q53.37-2.49 50.64-1.09 47.92 0.32 45.04 0.32ZM68.77-0.1L68.77-0.1 67.84-0.1Q64.33-0.1 62.79-3.13L62.79-3.13Q61.52-5.59 61.52-11.23 61.52-16.87 60.91-18.97L60.91-18.97Q60.69-19.75 59.69-20.75 58.69-21.75 58.69-22.49L58.69-22.49 58.69-22.8Q58.69-23.44 59.83-24.19 60.98-24.95 61.16-25.28 61.35-25.61 61.9-27.65 62.45-29.69 63.04-30.51 63.64-31.32 64.66-31.32 65.67-31.32 66.1-30.74 66.52-30.15 66.95-28.32 67.38-26.49 67.89-25.84 68.4-25.2 70.38-24.49 72.36-23.78 72.36-22.73L72.36-22.73Q72.36-21.8 70.3-21.07 68.23-20.34 67.7-19.26L67.7-19.26Q66.67-17.19 66.67-11.91 66.67-6.64 67.57-5.46 68.48-4.27 70.52-4 72.55-3.74 72.55-2.47L72.55-2.47Q72.55-1.49 71.39-0.79 70.23-0.1 68.77-0.1ZM100.36-3.52L100.36-3.52Q100.36-0.76 97.28-0.76L97.28-0.76Q95.89-0.76 95.24-1.25 94.6-1.73 94.6-2.91L94.6-2.91 94.62-3.44 94.67-4 94.67-5.3 94.45-11.25Q94.45-16.26 93.38-18.03 92.3-19.8 89.79-19.8L89.79-19.8Q88.44-19.8 87.16-18.97 85.88-18.14 85.15-16.48 84.42-14.82 84.42-7.57L84.42-7.57Q84.42-6.57 84.58-5.08 84.73-3.59 84.73-3.54L84.73-3.54Q84.73-2.2 83.89-1.35 83.05-0.51 81.39-0.51L81.39-0.51 80.73-0.51Q78.22-0.51 78.22-2.47L78.22-2.47 78.22-3.13Q78.22-3.52 78.46-4.47L78.46-4.47 78.83-5.81Q79.26-7.89 79.26-14.31L79.26-14.31 79.26-23.56 79.39-29 79.41-29.76Q79.44-30.52 79.44-31.2 79.44-31.88 79.34-32.45L79.34-32.45 79.22-32.96Q79.05-33.72 79.05-33.86L79.05-33.86Q79.05-35.01 80.41-35.01L80.41-35.01 81.05-35.01Q83.54-35.01 84.17-32.91L84.17-32.91Q84.47-31.98 84.56-28.87 84.66-25.76 84.84-24.18 85.03-22.61 85.88-22.61L85.88-22.61Q86.2-22.61 86.78-22.8L86.78-22.8 87.32-23.02Q89.86-24.15 91.86-24.15L91.86-24.15Q96.31-24.15 98.06-20.48L98.06-20.48Q99.28-17.94 99.28-10.52L99.28-10.52Q99.28-7.81 99.82-5.92 100.36-4.03 100.36-3.52ZM117.84-14.38L117.84-14.38Q119.5-14.38 120.18-14.89 120.86-15.41 120.86-16.06L120.86-16.06 120.86-17.09Q120.86-18.85 119.57-20 118.28-21.14 116.74-21.14L116.74-21.14 116.1-21.14Q113.88-21.14 112.22-19.27 110.56-17.41 110.56-15.19L110.56-15.19 110.56-14.77Q110.56-13.92 112.12-13.92L112.12-13.92 112.69-13.92 112.83-13.94 114.66-14.06 115.88-14.16 116.71-14.26Q116.93-14.28 117.31-14.33 117.69-14.38 117.84-14.38ZM116.84 0.32L116.84 0.32 115.76 0.32Q110.88 0.32 107.92-2.98L107.92-2.98Q106.61-4.44 105.87-6.7 105.14-8.96 105.14-11.18L105.14-11.18 105.14-12.28Q105.14-14.5 106.07-16.94L106.07-16.94Q107.85-21.7 112.12-23.41L112.12-23.41Q114.32-24.32 116.79-24.32L116.79-24.32 117.32-24.32Q120.74-24.32 122.96-22.24L122.96-22.24Q124.23-21.04 124.88-19.37 125.53-17.7 125.53-16.36L125.53-16.36Q125.53-13.4 123.67-12.5L123.67-12.5Q122.4-11.89 117.87-11.35 113.34-10.82 112.91-10.69L112.91-10.69Q110.78-10.16 110.78-8.79L110.78-8.79Q110.78-6.42 112.95-4.83L112.95-4.83Q114.54-3.66 117.49-3.66L117.49-3.66Q118.62-3.66 121.13-4.37 123.65-5.08 123.89-5.08L123.89-5.08Q125.16-5.08 125.16-3.93L125.16-3.93Q125.16-2.49 122.44-1.09 119.72 0.32 116.84 0.32ZM142.83-14.38L142.83-14.38Q144.49-14.38 145.18-14.89 145.86-15.41 145.86-16.06L145.86-16.06 145.86-17.09Q145.86-18.85 144.57-20 143.27-21.14 141.74-21.14L141.74-21.14 141.1-21.14Q138.88-21.14 137.22-19.27 135.56-17.41 135.56-15.19L135.56-15.19 135.56-14.77Q135.56-13.92 137.12-13.92L137.12-13.92 137.68-13.92 137.83-13.94 139.66-14.06 140.88-14.16 141.71-14.26Q141.93-14.28 142.31-14.33 142.69-14.38 142.83-14.38ZM141.83 0.32L141.83 0.32 140.76 0.32Q135.88 0.32 132.92-2.98L132.92-2.98Q131.6-4.44 130.87-6.7 130.14-8.96 130.14-11.18L130.14-11.18 130.14-12.28Q130.14-14.5 131.07-16.94L131.07-16.94Q132.85-21.7 137.12-23.41L137.12-23.41Q139.32-24.32 141.78-24.32L141.78-24.32 142.32-24.32Q145.74-24.32 147.96-22.24L147.96-22.24Q149.23-21.04 149.88-19.37 150.52-17.7 150.52-16.36L150.52-16.36Q150.52-13.4 148.67-12.5L148.67-12.5Q147.4-11.89 142.87-11.35 138.34-10.82 137.9-10.69L137.9-10.69Q135.78-10.16 135.78-8.79L135.78-8.79Q135.78-6.42 137.95-4.83L137.95-4.83Q139.54-3.66 142.49-3.66L142.49-3.66Q143.62-3.66 146.13-4.37 148.64-5.08 148.89-5.08L148.89-5.08Q150.16-5.08 150.16-3.93L150.16-3.93Q150.16-2.49 147.44-1.09 144.71 0.32 141.83 0.32ZM158.14-13.28Q156.04-15.14 156.04-18.08 156.04-21.02 158.55-22.89 161.07-24.76 164.95-24.76 168.83-24.76 170.61-23.82 172.4-22.88 172.4-21.36L172.4-21.36Q172.4-19.29 171.05-19.29L171.05-19.29Q170.59-19.29 168.59-20.29 166.59-21.29 164.71-21.29 162.83-21.29 161.89-20.43 160.95-19.58 160.95-18.24 160.95-16.89 162.75-15.84L162.75-15.84Q163.36-15.48 166.72-14.15 170.08-12.82 171.44-11.62L171.44-11.62Q173.57-9.74 173.57-6.74 173.57-3.74 171.07-1.7 168.56 0.34 164.61 0.34L164.61 0.34Q157.9 0.34 156.28-2.27L156.28-2.27Q155.77-3.1 155.77-3.74L155.77-3.74Q155.77-5.86 157.09-5.86L157.09-5.86Q157.48-5.86 159.96-4.55 162.44-3.25 164.38-3.25 166.32-3.25 167.44-4.08 168.56-4.91 168.56-6.34 168.56-7.76 166.78-8.96L166.78-8.96Q166.05-9.45 162.75-10.78 159.46-12.11 158.14-13.28L158.14-13.28ZM194.07-13.84L194.07-13.84Q194.05-13.84 192.12-9.4 190.19-4.96 189.46-3.74L189.46-3.74Q188.02-1.34 186.53-1.34L186.53-1.34Q185.68-1.34 184.69-2.08 183.7-2.81 183.15-4.21 182.6-5.62 181.42-9.79 180.23-13.96 179.23-16.96 178.23-19.95 178.23-21.17L178.23-21.17Q178.23-23.39 179.87-23.39L179.87-23.39Q182.11-23.39 183.06-21.46L183.06-21.46Q183.09-21.41 184.92-14.49 186.75-7.57 187.9-7.57L187.9-7.57Q188.8-7.57 190.39-13.77L190.39-13.77Q190.85-15.55 191.19-18.37 191.54-21.19 191.66-21.48L191.66-21.48Q192.39-23.27 194.61-23.27 196.83-23.27 197.74-21.04L197.74-21.04Q198.1-20.14 198.4-18.09 198.69-16.04 199.4-13.38L199.4-13.38Q200.91-7.64 201.76-7.64L201.76-7.64Q202.74-7.64 204.55-13.87L204.55-13.87Q205.11-15.77 205.71-18.48 206.31-21.19 206.6-21.85L206.6-21.85Q207.31-23.41 208.91-23.41 210.5-23.41 210.5-21.34L210.5-21.34Q210.5-20.56 209.61-17.69 208.72-14.82 207.28-9.89 205.84-4.96 205.33-3.86 204.82-2.76 203.86-2.01 202.91-1.27 202.11-1.27L202.11-1.27Q200.67-1.27 199.65-2.78 198.64-4.3 196.5-9.07 194.37-13.84 194.07-13.84ZM223.37-3.08L223.37-3.08 224.13-3.08Q226.4-3.08 228.13-5.03L228.13-5.03Q229.08-6.1 229.08-9.03L229.08-9.03 229.11-9.35 229.11-9.96Q229.11-11.79 227.59-11.79L227.59-11.79 226.81-11.79 225.54-11.69 224.88-11.62Q222.64-11.62 221.2-10.36 219.76-9.11 219.76-7.37L219.76-7.37 219.76-6.52Q219.76-5.2 220.7-4.14 221.64-3.08 223.37-3.08ZM235.72-1.9L235.72-1.9Q235.72-0.27 232.43-0.27L232.43-0.27Q231.84-0.27 230.29-0.87 228.74-1.46 228.34-1.46 227.93-1.46 225.69-0.62 223.44 0.22 221.73 0.22L221.73 0.22 221.17 0.22Q218.51 0.22 216.58-1.53 214.65-3.27 214.65-6.3L214.65-6.3Q214.65-12.45 222.44-13.96L222.44-13.96Q227.49-14.97 227.67-15.04L227.67-15.04Q228.86-15.65 228.86-17.25 228.86-18.85 227.85-19.93 226.84-21.02 225.09-21.02 223.34-21.02 220.98-19.84 218.61-18.65 217.73-18.65L217.73-18.65Q216.14-18.65 216.14-20.83L216.14-20.83Q216.14-22.19 218.64-23.41 221.15-24.63 224.35-24.63L224.35-24.63 225.57-24.63Q227.96-24.63 229.81-23.73 231.67-22.83 232.65-21.29L232.65-21.29Q234.04-19.12 234.04-11.35L234.04-11.35Q234.04-6.96 234.22-5.88 234.4-4.81 235.06-3.72 235.72-2.64 235.72-1.9ZM252.96-19.29L252.96-19.29Q250.66-19.29 249.39-17 248.12-14.72 248.12-10.03L248.12-10.03Q248.12-7.96 248.29-7.09 248.46-6.23 248.82-4.94 249.17-3.66 249.17-2.72 249.17-1.78 248.05-1 246.93-0.22 245.12-0.22L245.12-0.22 244.7-0.24 244.26-0.24Q243.09-0.24 242.32-0.9 241.55-1.56 241.55-2.39L241.55-2.39 241.55-2.78Q241.55-2.95 242.02-4.39 242.48-5.83 242.56-7.18 242.63-8.52 242.63-10.79L242.63-10.79 242.63-13.5 242.6-13.94Q242.6-14.38 242.6-14.82L242.6-14.82 242.56-16.14Q242.53-16.58 242.53-17.86 242.53-19.14 242.08-20.3 241.63-21.46 241.63-21.8L241.63-21.8Q241.63-23.27 244.19-23.27 246.75-23.27 247.9-21.88L247.9-21.88Q248.24-21.46 248.62-21.46 249-21.46 249.88-22.07L249.88-22.07Q252.32-23.73 253.98-23.73L253.98-23.73 254.37-23.73Q255.84-23.73 256.61-23.07 257.37-22.41 257.37-21.31L257.37-21.31Q257.37-19.14 254.96-19.14L254.96-19.14Q254.01-19.29 252.96-19.29ZM269.24-3.08L269.24-3.08 269.99-3.08Q272.27-3.08 274-5.03L274-5.03Q274.95-6.1 274.95-9.03L274.95-9.03 274.98-9.35 274.98-9.96Q274.98-11.79 273.46-11.79L273.46-11.79 272.68-11.79 271.41-11.69 270.75-11.62Q268.51-11.62 267.06-10.36 265.62-9.11 265.62-7.37L265.62-7.37 265.62-6.52Q265.62-5.2 266.56-4.14 267.5-3.08 269.24-3.08ZM281.59-1.9L281.59-1.9Q281.59-0.27 278.3-0.27L278.3-0.27Q277.71-0.27 276.16-0.87 274.61-1.46 274.21-1.46 273.8-1.46 271.56-0.62 269.31 0.22 267.6 0.22L267.6 0.22 267.04 0.22Q264.38 0.22 262.45-1.53 260.52-3.27 260.52-6.3L260.52-6.3Q260.52-12.45 268.31-13.96L268.31-13.96Q273.36-14.97 273.53-15.04L273.53-15.04Q274.73-15.65 274.73-17.25 274.73-18.85 273.72-19.93 272.7-21.02 270.96-21.02 269.21-21.02 266.85-19.84 264.48-18.65 263.6-18.65L263.6-18.65Q262.01-18.65 262.01-20.83L262.01-20.83Q262.01-22.19 264.51-23.41 267.02-24.63 270.21-24.63L270.21-24.63 271.43-24.63Q273.83-24.63 275.68-23.73 277.54-22.83 278.52-21.29L278.52-21.29Q279.91-19.12 279.91-11.35L279.91-11.35Q279.91-6.96 280.09-5.88 280.27-4.81 280.93-3.72 281.59-2.64 281.59-1.9ZM290.04-0.71L290.04-0.71Q290.01-0.71 289.96-0.71L289.96-0.71Q287.16-0.71 287.16-2.64L287.16-2.64Q287.16-3.56 287.64-4.93 288.13-6.3 288.2-7.7 288.28-9.11 288.28-12.01L288.28-12.01 288.28-16.58 288.33-17.85Q288.38-19.12 288.38-19.65L288.38-19.65 288.13-22.17Q288.13-23.02 289.66-23.02 291.18-23.02 292.79-22.19 294.41-21.36 294.78-21.36 295.16-21.36 296.22-21.85 297.29-22.34 298.74-22.91 300.19-23.49 301.73-23.49L301.73-23.49 302.37-23.49Q304.2-23.49 305.62-22.5 307.05-21.51 307.7-19.76 308.35-18.02 308.62-13.35L308.62-13.35 308.69-12.01 308.74-10.67Q308.81-9.5 308.91-8.13 309.01-6.76 309.57-5.26 310.13-3.76 310.13-3.25L310.13-3.25Q310.13-1.07 306.81-1.07L306.81-1.07Q305.39-1.07 304.73-1.65 304.07-2.22 304.07-3.59L304.07-3.59 304.12-4.49Q304.12-13.99 302.76-17.43L302.76-17.43Q301.68-20.09 298.97-20.09L298.97-20.09Q297.68-20.09 296.44-19.45 295.21-18.8 294.53-17.36L294.53-17.36Q293.31-14.79 293.31-7.5L293.31-7.5 293.5-3.08Q293.5-2.03 292.5-1.37 291.5-0.71 290.04-0.71ZM342.64-13.94L343.06-13.94Q346.77-13.94 346.77-14.65L346.77-14.65 346.77-14.79Q346.77-15.04 346.46-16.22 346.16-17.41 346.11-17.61 346.06-17.82 345.99-18.03 345.91-18.24 345.27-21.01 344.62-23.78 343.6-26.17 342.57-28.56 342.42-28.56 342.28-28.56 341.57-26.81L341.57-26.81Q337.47-16.55 337.47-14.67L337.47-14.67 337.47-14.53Q337.47-13.94 339.98-13.94L339.98-13.94 341.62-13.94 341.84-13.96 342.64-13.94ZM356.58-4.2L356.58-4.2 356.58-3.71Q356.58-2.32 355.41-1.2L355.41-1.2Q354.78-0.59 353.08-0.59 351.38-0.59 350.68-1.49L350.68-1.49Q350.6-1.59 349.74-4.81 348.87-8.03 347.78-9.27 346.7-10.5 343.55-10.5L343.55-10.5Q337.54-10.5 336.41-9.46 335.27-8.42 334.22-5.08L334.22-5.08Q333.83-3.86 333.68-2.73 333.54-1.61 333.32-1.29L333.32-1.29Q332.88-0.63 331.6-0.63 330.31-0.63 329.56-1.7 328.8-2.76 328.8-4.06 328.8-5.37 329.69-6.68 330.58-7.98 330.99-9.02 331.39-10.06 334.55-19.34 337.71-28.61 338.8-30.91 339.88-33.2 340.7-33.83 341.52-34.45 342.72-34.45 343.91-34.45 344.89-33.59 345.87-32.74 346.99-30.32L346.99-30.32Q347.01-30.25 354.61-8.84L354.61-8.84Q355.02-7.67 355.8-6.4 356.58-5.13 356.58-4.2ZM372.08-3.17L372.08-3.17 372.82-3.17Q375.26-3.17 376.95-5.49 378.65-7.81 378.65-11.89L378.65-11.89 378.65-13.55Q378.65-17.07 377.22-19.15 375.8-21.24 373.7-21.24L373.7-21.24 372.99-21.24Q370.52-21.24 368.91-19.24L368.91-19.24Q367.79-17.82 367.79-15.14L367.79-15.14Q367.71-14.4 367.71-14.14L367.71-14.14 367.67-13.65 367.64-13.13 367.64-12.62 367.62-11.84 367.62-10.06Q367.62-6.03 368.67-4.6 369.72-3.17 372.08-3.17ZM362.86-6.52L362.86-6.52 362.86-10.86 362.88-11.45 362.88-14.28 362.9-14.87 362.9-16.02 362.93-17.14Q362.93-18.85 362.93-20.58L362.93-20.58 362.95-21.75 362.95-22.9 362.98-24.05 362.98-25.2Q362.98-28.64 362.87-29.6 362.76-30.57 362.38-31.73 362-32.89 362-33.23L362-33.23 362-33.69Q362-35.3 364.17-35.3L364.17-35.3 364.66-35.3Q366.81-35.3 367.4-34.05 367.98-32.79 367.98-28.96 367.98-25.12 368.23-24.02 368.47-22.92 369.25-22.92L369.25-22.92Q369.81-22.92 371.57-23.38 373.33-23.83 375.09-23.83 376.84-23.83 378.69-22.86 380.53-21.9 381.7-20.12L381.7-20.12Q383.92-16.77 383.92-12.18L383.92-12.18 383.9-11.6 383.9-11.01Q383.9-8.69 383-6.52L383-6.52Q381.17-2.15 377.26-0.66L377.26-0.66Q375.45 0.02 373.52 0.02L373.52 0.02 372.99 0.02Q371.57 0.02 369.81-0.49 368.06-1 367.13-1L367.13-1 365.49-0.81Q363.37-0.81 362.9-2.81L362.9-2.81Q362.86-3.03 362.86-6.52ZM393.05-34.3L393.05-34.3 393.86-34.3Q394.91-34.3 395.67-33.67 396.42-33.03 396.42-31.81L396.42-31.81 396.42-31.2Q396.42-30.2 395.76-29.41 395.1-28.61 394.08-28.61L394.08-28.61 393.59-28.54 392.78-28.54Q392.49-28.61 392.05-28.61 391.61-28.61 391.01-29.21 390.42-29.81 390.42-30.54L390.42-30.54Q390.37-30.74 390.37-30.83L390.37-30.83 390.32-31.32 390.32-31.45 390.42-32.23Q390.42-32.79 391.05-33.54 391.69-34.3 393.05-34.3ZM393.44-0.07L393.44-0.07 392.2-0.07Q391.17-0.07 390.44-0.66 389.71-1.25 389.71-1.94 389.71-2.64 390.12-3.96 390.54-5.27 390.54-6.3L390.54-6.3 390.59-6.91 390.64-8.18 390.64-9.18 390.66-9.84 390.66-17.77Q390.56-19.09 390.25-20L390.25-20 390.03-20.46Q389.51-21.73 389.51-21.85L389.51-21.85 389.51-22.34Q389.51-23.75 392.44-23.75L392.44-23.75 393.32-23.75Q395.1-23.75 395.49-22.36L395.49-22.36Q395.59-22 395.59-18.09L395.59-18.09 395.59-12.55 395.64-10.94 395.74-9.06Q395.74-6.15 396.94-4.13L396.94-4.13Q397.42-3.3 397.42-2.28 397.42-1.27 396.28-0.67 395.13-0.07 393.44-0.07ZM412.58 0L412.58 0Q410.8 0 409.3-3.17 407.8-6.35 405.93-11.8 404.06-17.26 402.89-19.21 401.72-21.17 401.72-22.19 401.72-23.22 402.21-23.63L402.21-23.63Q402.72-24.05 404.5-24.05L404.5-24.05Q407.36-24.05 408.29-21.97L408.29-21.97Q408.5-21.46 408.82-19.75 409.14-18.04 410.93-12.08 412.73-6.13 413.36-6.13L413.36-6.13Q414.12-6.13 416.22-12.74 418.32-19.36 418.51-20.84 418.71-22.31 418.81-22.56L418.81-22.56Q419.37-24.07 421.52-24.07L421.52-24.07 422.01-24.07Q423.25-24.07 423.7-23.69 424.15-23.32 424.15-22.31L424.15-22.31 424.15-21.9Q424.15-21.26 422.69-18.75L422.69-18.75Q422.37-18.21 419.92-11.61 417.46-5 416.38-2.95 415.29-0.9 414.55-0.45 413.8 0 412.58 0ZM435.94-3.08L435.94-3.08 436.7-3.08Q438.97-3.08 440.7-5.03L440.7-5.03Q441.66-6.1 441.66-9.03L441.66-9.03 441.68-9.35 441.68-9.96Q441.68-11.79 440.17-11.79L440.17-11.79 439.39-11.79 438.12-11.69 437.46-11.62Q435.21-11.62 433.77-10.36 432.33-9.11 432.33-7.37L432.33-7.37 432.33-6.52Q432.33-5.2 433.27-4.14 434.21-3.08 435.94-3.08ZM448.3-1.9L448.3-1.9Q448.3-0.27 445-0.27L445-0.27Q444.42-0.27 442.87-0.87 441.31-1.46 440.91-1.46 440.51-1.46 438.26-0.62 436.02 0.22 434.31 0.22L434.31 0.22 433.75 0.22Q431.09 0.22 429.16-1.53 427.23-3.27 427.23-6.3L427.23-6.3Q427.23-12.45 435.02-13.96L435.02-13.96Q440.07-14.97 440.24-15.04L440.24-15.04Q441.44-15.65 441.44-17.25 441.44-18.85 440.42-19.93 439.41-21.02 437.67-21.02 435.92-21.02 433.55-19.84 431.18-18.65 430.3-18.65L430.3-18.65Q428.72-18.65 428.72-20.83L428.72-20.83Q428.72-22.19 431.22-23.41 433.72-24.63 436.92-24.63L436.92-24.63 438.14-24.63Q440.53-24.63 442.39-23.73 444.24-22.83 445.22-21.29L445.22-21.29Q446.61-19.12 446.61-11.35L446.61-11.35Q446.61-6.96 446.8-5.88 446.98-4.81 447.64-3.72 448.3-2.64 448.3-1.9ZM465.53-19.29L465.53-19.29Q463.24-19.29 461.97-17 460.7-14.72 460.7-10.03L460.7-10.03Q460.7-7.96 460.87-7.09 461.04-6.23 461.39-4.94 461.75-3.66 461.75-2.72 461.75-1.78 460.62-1 459.5-0.22 457.69-0.22L457.69-0.22 457.28-0.24 456.84-0.24Q455.67-0.24 454.9-0.9 454.13-1.56 454.13-2.39L454.13-2.39 454.13-2.78Q454.13-2.95 454.59-4.39 455.06-5.83 455.13-7.18 455.2-8.52 455.2-10.79L455.2-10.79 455.2-13.5 455.18-13.94Q455.18-14.38 455.18-14.82L455.18-14.82 455.13-16.14Q455.11-16.58 455.11-17.86 455.11-19.14 454.65-20.3 454.2-21.46 454.2-21.8L454.2-21.8Q454.2-23.27 456.77-23.27 459.33-23.27 460.48-21.88L460.48-21.88Q460.82-21.46 461.2-21.46 461.58-21.46 462.46-22.07L462.46-22.07Q464.9-23.73 466.56-23.73L466.56-23.73 466.95-23.73Q468.41-23.73 469.18-23.07 469.95-22.41 469.95-21.31L469.95-21.31Q469.95-19.14 467.53-19.14L467.53-19.14Q466.58-19.29 465.53-19.29ZM476.3-13.28Q474.2-15.14 474.2-18.08 474.2-21.02 476.71-22.89 479.22-24.76 483.11-24.76 486.99-24.76 488.77-23.82 490.55-22.88 490.55-21.36L490.55-21.36Q490.55-19.29 489.21-19.29L489.21-19.29Q488.75-19.29 486.74-20.29 484.74-21.29 482.86-21.29 480.98-21.29 480.04-20.43 479.1-19.58 479.1-18.24 479.1-16.89 480.91-15.84L480.91-15.84Q481.52-15.48 484.88-14.15 488.23-12.82 489.6-11.62L489.6-11.62Q491.72-9.74 491.72-6.74 491.72-3.74 489.22-1.7 486.72 0.34 482.77 0.34L482.77 0.34Q476.05 0.34 474.44-2.27L474.44-2.27Q473.93-3.1 473.93-3.74L473.93-3.74Q473.93-5.86 475.25-5.86L475.25-5.86Q475.64-5.86 478.11-4.55 480.59-3.25 482.53-3.25 484.47-3.25 485.6-4.08 486.72-4.91 486.72-6.34 486.72-7.76 484.94-8.96L484.94-8.96Q484.21-9.45 480.91-10.78 477.61-12.11 476.3-13.28L476.3-13.28ZM504.59-3.08L504.59-3.08 505.35-3.08Q507.62-3.08 509.35-5.03L509.35-5.03Q510.3-6.1 510.3-9.03L510.3-9.03 510.33-9.35 510.33-9.96Q510.33-11.79 508.81-11.79L508.81-11.79 508.03-11.79 506.76-11.69 506.1-11.62Q503.86-11.62 502.42-10.36 500.98-9.11 500.98-7.37L500.98-7.37 500.98-6.52Q500.98-5.2 501.92-4.14 502.86-3.08 504.59-3.08ZM516.94-1.9L516.94-1.9Q516.94-0.27 513.65-0.27L513.65-0.27Q513.06-0.27 511.51-0.87 509.96-1.46 509.56-1.46 509.15-1.46 506.91-0.62 504.66 0.22 502.95 0.22L502.95 0.22 502.39 0.22Q499.73 0.22 497.8-1.53 495.87-3.27 495.87-6.3L495.87-6.3Q495.87-12.45 503.66-13.96L503.66-13.96Q508.71-14.97 508.89-15.04L508.89-15.04Q510.08-15.65 510.08-17.25 510.08-18.85 509.07-19.93 508.06-21.02 506.31-21.02 504.56-21.02 502.2-19.84 499.83-18.65 498.95-18.65L498.95-18.65Q497.36-18.65 497.36-20.83L497.36-20.83Q497.36-22.19 499.86-23.41 502.37-24.63 505.57-24.63L505.57-24.63 506.79-24.63Q509.18-24.63 511.03-23.73 512.89-22.83 513.87-21.29L513.87-21.29Q515.26-19.12 515.26-11.35L515.26-11.35Q515.26-6.96 515.44-5.88 515.62-4.81 516.28-3.72 516.94-2.64 516.94-1.9ZM525.39-0.71L525.39-0.71Q525.36-0.71 525.31-0.71L525.31-0.71Q522.51-0.71 522.51-2.64L522.51-2.64Q522.51-3.56 522.99-4.93 523.48-6.3 523.56-7.7 523.63-9.11 523.63-12.01L523.63-12.01 523.63-16.58 523.68-17.85Q523.73-19.12 523.73-19.65L523.73-19.65 523.48-22.17Q523.48-23.02 525.01-23.02 526.53-23.02 528.15-22.19 529.76-21.36 530.14-21.36 530.51-21.36 531.58-21.85 532.64-22.34 534.09-22.91 535.54-23.49 537.08-23.49L537.08-23.49 537.72-23.49Q539.55-23.49 540.98-22.5 542.4-21.51 543.05-19.76 543.7-18.02 543.97-13.35L543.97-13.35 544.04-12.01 544.09-10.67Q544.16-9.5 544.26-8.13 544.36-6.76 544.92-5.26 545.48-3.76 545.48-3.25L545.48-3.25Q545.48-1.07 542.16-1.07L542.16-1.07Q540.74-1.07 540.08-1.65 539.43-2.22 539.43-3.59L539.43-3.59 539.47-4.49Q539.47-13.99 538.11-17.43L538.11-17.43Q537.03-20.09 534.32-20.09L534.32-20.09Q533.03-20.09 531.8-19.45 530.56-18.8 529.88-17.36L529.88-17.36Q528.66-14.79 528.66-7.5L528.66-7.5 528.85-3.08Q528.85-2.03 527.85-1.37 526.85-0.71 525.39-0.71Z" opacity="1" transform="matrix(1,0,0,1,0,0)" fill="#ff4057" class="wordmark-text-0" data-fill-palette-color="primary" id="text-0"></path></svg></g></svg></g></svg></g></svg></g><g transform="matrix(1,0,0,1,87.34500536186552,0)"><svg viewBox="0 0 17.30998927626896 17.459989183342348" height="17.459989183342348" width="17.30998927626896"><g><svg xmlns="http://www.w3.org/2000/svg" xmlns:xlink="http://www.w3.org/1999/xlink" version="1.1" x="0" y="0" viewBox="21.2 20.9 57.7 58.199999999999996" enable-background="new 0 0 100 100" xml:space="preserve" height="17.459989183342348" width="17.30998927626896" class="icon-icon-0" data-fill-palette-color="accent" id="icon-0"><g fill="#dcdcdc" data-fill-palette-color="accent"><path d="M58.7 79.1H74.3C76.8 79.1 78.9 77 78.9 74.5V41.2C78.9 38.7 76.8 36.6 74.3 36.6H58.7C56.2 36.6 54.1 38.7 54.1 41.2V74.5C54.2 77.1 56.2 79.1 58.7 79.1M66.5 77.8C65.5 77.8 64.7 77 64.7 76S65.5 74.2 66.5 74.2 68.3 75 68.3 76 67.5 77.8 66.5 77.8M57.7 42.9H75.4V72.9H57.7zM25.5 27.2H58.2V33.2H62.5V25.6C62.5 23.7 61.3 22 59.6 21.3 59 21.1 58.4 20.9 57.8 20.9H25.9C25.3 20.9 24.6 21 24.1 21.3 22.4 22 21.2 23.7 21.2 25.6V74.4C21.2 77 23.3 79.1 25.9 79.1H52.2C51.3 77.8 50.8 76.2 50.8 74.5V71.8H25.4zM41.7 73.8C42.7 73.8 43.5 74.6 43.5 75.6S42.7 77.4 41.7 77.4 39.9 76.6 39.9 75.6 40.8 73.8 41.7 73.8" fill="#dcdcdc" data-fill-palette-color="accent"></path></g></svg></g></svg></g><g></g></svg></g></svg></g></svg></g></svg></g><defs></defs></svg><rect width="320" height="360" fill="none" stroke="none" visibility="hidden"></rect></g></svg></g></svg>